<?xml version="1.0" encoding="utf-8"?>
<!-- Generator: Adobe Illustrator 23.0.2, SVG Export Plug-In . SVG Version: 6.00 Build 0)  -->
<svg version="1.1" id="Layer_1" xmlns="http://www.w3.org/2000/svg" xmlns:xlink="http://www.w3.org/1999/xlink" x="0px" y="0px"
	 viewBox="0 0 1024 1024" style="enable-background:new 0 0 1024 1024;" xml:space="preserve">
<style type="text/css">
	.st0{fill-rule:evenodd;clip-rule:evenodd;fill:#2BA6DE;}
	.st1{fill:#2BA6DE;}
</style>
<g>
	<path class="st0" d="M654.8,330.7c-0.7-0.8-1.9-2.1-1.9-2.2c1.5-1.6,2,0.6,3.2,0.9C655.7,329.9,655.3,330.3,654.8,330.7z"/>
	<path class="st0" d="M833.9,250.2c0-0.6-0.1-1.3-0.2-1.9c0.7,0.2,1.4,0.3,2.2,0.4C835.2,249.2,834.6,249.7,833.9,250.2z"/>
	<path class="st0" d="M833.9,115.6c-0.6,1-1.7,1.7-2.5,0.8c-0.9-1.1,0.5-1.6,1.2-2.2C833.1,114.6,833.5,115.1,833.9,115.6z"/>
	<path class="st0" d="M673.3,177.4c-0.6,0.3-1.3,0.6-1.9,0.8c0.2-0.7,0.4-1.4,0.5-2.2C672.4,176.5,672.8,176.9,673.3,177.4z"/>
	<g>
		<path class="st1" d="M532.9,433.4c2-0.8,3.4,0.7,5,1.5c33,16.6,67.2,20.8,103.1,11.2c16.9-4.5,31-10.9,44.8-21
			c-4.4-17.5-12.8-33.5-23.9-48.7c4-0.8,6.4,1.6,9.1,2.9c29.5,14.4,60.5,19.5,92.7,13.8c25.3-4.4,47-16.7,66.2-34.5
			c-7-16.8-16-32.3-27-47.8c19.2,1.8,36.6-1.1,53.7-7.8c3.6,6.7,4.4,13.6,5.2,20.5c0.9,8.2,1.5,16.5,1.2,24.8
			c-1.3,30.3-0.7,60.5,1.2,90.7c1,15.4-0.1,30.4-6.6,44.8c-2.8,6.1-2,12.7-0.9,19.1c2.8,16.6,8.9,32.3,14.5,48.1
			c5.2,14.6,11,29,14.9,44c4.5,17.6,2.8,34.8-3.2,51.7c-3.4,9.6-9.9,16.2-18.8,20.7c-7.4,3.7-15,6.9-22.8,9.7
			c-3.4,1.2-6.7,2.6-10.4,4c0,6,0,11.9,0,17.8c0.1,11.2-0.5,22.2-5.1,32.6c-0.8,1.7-0.8,3.5-0.7,5.3c1,13.4-5.8,22.6-16.1,29.8
			c-8.7,6.1-16.4,13.3-24.7,20.3c2.4,7.7,4.7,15.3,7,22.9c1.8,5.7,2.7,11.6,3.3,17.5c2.2,20.1-5,33.7-23,43.3
			c-12.7,6.8-26.5,10.2-40.8,11c-23,1.3-44.6-3.8-64.9-14.5c-3-1.6-6-3.1-10-2c-3,6.4-2.2,13.5-1.1,20.2c3.7,23.1,2.8,46.4,4,69.6
			c0,0.5-0.2,1-0.4,1.9c-8.5,7.1-18.6,11.5-29.2,14.9c-22.8,7.3-46.2,10.9-70.1,11.3c-49,0.7-96.6-7.8-143.3-22.4
			c-25.8-8-50.4-18.5-73.6-32.3c-21.6-12.9-41.5-28.1-57.2-48.2c-4.3-5.5-6.8-10.9-5.3-18.5c1.6-8.3,1.3-17,2-25.5
			c1.9-26.3,3.9-52.5,5.8-78.8c1.3-18,2.6-36.1,4-54.1c0.2-2.6,0.5-5.1,0.9-8.6c-46.4-48.5-73.9-106.1-76.9-175.1
			c17.6,2.7,35.3,5.4,53.7,8.3c3.8-15.3,4.2-30.3,3-47c20.9,19.8,44.2,32.1,70.7,37.8c16.3,3.5,32.7,4.2,49.9,1.4
			c4-19.3,3.1-38.7,0.7-58.5c20.8,19.4,43.8,34,71.5,40.5c27.6,6.5,54.7,5.6,81.7-3.9c1.2-6.3,0.6-12.1-0.1-18
			c-1.8-14.5-6.2-28.2-11.9-41.6c-0.7-1.6-1.9-3.1-1.5-5.1L532.9,433.4z"/>
		<path class="st1" d="M368.1,483.6c-37.8,5-91.6-16.6-109.3-77.9c-14.7-0.7-29.5-1.4-45.9-2.2c23.9,24.8,34.4,53.2,30.9,87.2
			c-28.1,1.9-52.4-6.4-73.3-24.1c-21-17.8-32.6-41-35.9-68.3c-18.1-1.8-35.5-3.6-53.7-5.5c1.8-15.3,3.5-29.8,5.3-45.1
			c16.8,1.7,33.2,3.4,50.4,5.2c-1.5-31.1,7.6-58,28.8-80.3c13.7-14.4,31.4-24.1,51.5-28.5c4.3,8.9,6.3,18.6,7.8,28.5
			c1.4,10.1,0.9,20.1-0.7,30.1c-1.6,10-5.1,19.4-9.6,28.5c-4.5,9-10.6,16.9-17.2,24.9c11.1,2.4,54.2,3.8,63,2.1
			c-5.8-30.2-1.2-58.5,16.9-83.9c11.8-16.5,27.1-28.9,47-36c12.3,19,16.3,39.6,15,61.5c-1.4,21.8-10,40.9-23,57.8
			c1.1,1.9,2.4,1.6,3.6,1.6c17.6,0.1,35.1-1.2,52.6-2.5c2.7-0.2,5.7-0.4,8.5-2.4c-8.5-28.4-6.5-56.1,8-82.3
			c11.5-20.8,28.4-35.9,51.3-45.2c11.9,17.8,17,37.4,16.5,58.4c-0.4,20.8-7.4,39.8-19,57.4c6.8,0.1,52.3-12.7,61.1-17.1
			c-9.6-28.9-8.6-57.3,5.8-84.6c9.6-18.3,23.6-32.4,42.4-42.4c12.5,15.2,19,32.3,22,51.4c3.1,19.3-1.5,37.2-8,56.2
			c20.3-6.4,38.9-14.1,57.3-21.7c1.1-3.9-1.2-6.1-2.3-8.5c-11.7-24.4-13.5-49.7-5.6-75.4c6.7-21.9,19.7-39.5,38.1-53
			c11.2,6,24.6,28.9,29.6,49.5c4.7,19.3,2.9,38.3-3.1,59c19.2-10.5,35.1-21.8,50-35.5c-17.3-28.4-22.9-58.1-12.5-89.9
			c7.1-21.6,19.9-38.8,38.8-52.6c22.1,22.1,32.1,48.5,31.3,79.9c2.7-1.4,3.7-3.4,5.1-5c1.5-1.7,2.9-3.6,4.5-5.7
			c-1.8-28,6-53,23.8-74.8c11.3-13.8,30.9-27.8,48-31.5c4.7,7.1,7.3,15.2,9.2,23.5c7.8,35.2,0.3,66.6-23.6,93.8
			c-3.9,4.4-8.1,9-13,12.1c-8.3,5.2-14.5,12.4-20.7,19.6c-4.2,4.8-8.4,9.6-12.7,14.6c3.2,1.5,5.6,0.2,8-0.4
			c18.4-4.7,36.8-5,55.2-0.3c14.7,3.8,27.7,11,39.3,20.5c-21.7,44.6-91.6,74.7-152,31.7c-11.8,10.5-24.7,19.9-37.7,28.8
			c0.5,3.1,2.7,2.5,4.3,2.8c25.8,4.5,46.7,17.4,63.2,37.6c3.1,3.8,6,7.7,7.8,12.4c-26.6,28.3-98.9,43.5-147.3-13.8
			c-6.7,1.9-50.5,19.8-53.9,22.2c30.1,11.8,51.8,31.8,63.1,62.1c-31.8,23.8-104.6,25-142.4-37.2c-15.3,3.7-30.3,9-47,13.5
			c7.4,5.9,14.5,10.4,20.4,16.3c5.9,5.9,10.9,12.4,15.5,19.3c4.8,7.2,8,15,10.5,23.2c2.4,7.9,5.2,15.7,4.2,25
			c-26,6-50.9,3.4-74.5-9.8c-23.3-13-39.2-32.3-48.2-57.8c-16.3,0.9-32,3.5-49.5,3.5c13.9,16.7,22.5,34,25.5,53.8
			C369,466.2,369,474.7,368.1,483.6z"/>
		<path class="st1" d="M583.1,202.6c-8.5-17.9-19.2-33.9-34.3-47.7c-34.1,17.8-56.8,45.2-70.4,81.8c-10.3-30-17.1-43.7-27.9-55.4
			c-38.6,13.4-66.4,39-85.1,77.2c-5.1-25.2-13.7-47.5-29.4-66.9c-16.1,5.4-30.4,13.4-43.5,23.6c-13.1,10.2-23.7,22.7-33.7,38.2
			c-2.5-25.8-14.5-41.9-39.1-47.9c2.1-8.4,5.6-15.5,9.2-22.5c12.3-23.8,30-43.2,50.2-60.5c27.3-23.4,58.7-39.1,92.6-50.6
			c27.3-9.2,54.9-16.5,83.5-19.9c21.9-2.6,43.8-2.8,65.8-0.9c52.7,4.5,103,18.8,152.6,36.2c8.5,3,16.4,7.4,25.5,11.5
			c-8.1,17-11,34.7-11.2,54.7c-7.1-9.8-12.2-19-19.2-26.7c-7.1-7.9-14.5-15.4-24.1-21.8C610.6,129.1,590.3,161.5,583.1,202.6z"/>
		<path class="st1" d="M533,433.3c-0.3-0.2-0.6-0.4-1-0.7c1-0.5,1,0.1,0.8,0.8L533,433.3z"/>
	</g>
</g>
</svg>
