<?xml version="1.0" encoding="utf-8"?>
<!-- Generator: Adobe Illustrator 23.0.1, SVG Export Plug-In . SVG Version: 6.00 Build 0)  -->
<svg version="1.1" id="Layer_1" xmlns="http://www.w3.org/2000/svg" xmlns:xlink="http://www.w3.org/1999/xlink" x="0px" y="0px"
	 viewBox="0 0 1024 1024" style="enable-background:new 0 0 1024 1024;" xml:space="preserve">
<style type="text/css">
	.st0{fill-rule:evenodd;clip-rule:evenodd;fill:#FFFFFF;}
	.st1{fill-rule:evenodd;clip-rule:evenodd;fill:#28A8E0;}
	.st2{fill:#FDFEFE;}
</style>
<g>
	<path class="st0" d="M654.83,330.74c-0.67-0.75-1.93-2.07-1.89-2.17c1.52-1.65,2.05,0.59,3.15,0.91
		C655.68,329.89,655.26,330.32,654.83,330.74z"/>
	<path class="st0" d="M833.92,250.18c-0.04-0.61-0.14-1.26-0.22-1.93c0.71,0.16,1.42,0.27,2.2,0.45
		C835.2,249.16,834.6,249.71,833.92,250.18z"/>
	<path class="st1" d="M833.92,115.56c-0.57,1.04-1.65,1.67-2.46,0.81c-0.92-1.1,0.51-1.61,1.2-2.22
		C833.09,114.58,833.5,115.07,833.92,115.56z"/>
	<path class="st1" d="M673.28,177.41c-0.63,0.31-1.26,0.59-1.91,0.82c0.18-0.73,0.37-1.42,0.49-2.2
		C672.37,176.52,672.8,176.94,673.28,177.41z"/>
	<g>
		<path class="st2" d="M532.86,433.38c2.03-0.79,3.42,0.67,4.97,1.45c32.97,16.56,67.24,20.78,103.07,11.2
			c16.9-4.52,31.03-10.93,44.79-21.04c-4.42-17.55-12.78-33.54-23.89-48.68c4.01-0.8,6.39,1.58,9.06,2.89
			c29.45,14.39,60.47,19.49,92.71,13.84c25.28-4.42,46.96-16.68,66.22-34.48c-6.98-16.84-15.98-32.31-27.02-47.84
			c19.18,1.82,36.61-1.14,53.73-7.76c3.58,6.71,4.43,13.62,5.17,20.46c0.89,8.21,1.52,16.45,1.16,24.75
			c-1.32,30.25-0.68,60.48,1.21,90.68c0.96,15.39-0.1,30.42-6.64,44.75c-2.78,6.09-2.02,12.69-0.93,19.09
			c2.85,16.63,8.91,32.32,14.52,48.13c5.18,14.59,11.03,28.95,14.89,44c4.51,17.62,2.81,34.75-3.15,51.71
			c-3.37,9.59-9.91,16.2-18.76,20.68c-7.38,3.73-15,6.93-22.8,9.71c-3.38,1.21-6.7,2.57-10.44,4.02c0,6.05-0.05,11.94,0.01,17.83
			c0.12,11.16-0.45,22.21-5.08,32.62c-0.77,1.72-0.81,3.51-0.68,5.32c0.97,13.38-5.83,22.64-16.14,29.81
			c-8.73,6.07-16.42,13.32-24.65,20.28c2.36,7.73,4.66,15.34,7.01,22.93c1.77,5.71,2.69,11.59,3.34,17.48
			c2.23,20.08-4.98,33.7-23,43.32c-12.72,6.8-26.46,10.19-40.81,11.02c-23.01,1.33-44.6-3.75-64.92-14.52
			c-2.96-1.57-5.98-3.1-10.05-2.05c-3.01,6.42-2.19,13.49-1.13,20.17c3.65,23.09,2.85,46.38,4.05,69.58c0.03,0.5-0.2,1.01-0.38,1.88
			c-8.46,7.07-18.63,11.49-29.22,14.86c-22.79,7.26-46.19,10.94-70.12,11.3c-49.04,0.74-96.62-7.85-143.28-22.38
			c-25.76-8.02-50.44-18.49-73.6-32.35c-21.64-12.94-41.46-28.12-57.19-48.15c-4.31-5.49-6.83-10.87-5.33-18.45
			c1.65-8.29,1.33-16.96,1.95-25.46c1.92-26.27,3.88-52.54,5.81-78.81c1.33-18.03,2.63-36.06,3.97-54.08
			c0.19-2.57,0.54-5.13,0.92-8.6c-46.42-48.47-73.9-106.12-76.9-175.14c17.63,2.71,35.33,5.43,53.71,8.26
			c3.81-15.25,4.17-30.29,3.02-47c20.88,19.79,44.18,32.06,70.73,37.77c16.26,3.5,32.74,4.18,49.9,1.43c4-19.3,3.11-38.71,0.71-58.5
			c20.78,19.39,43.8,33.97,71.47,40.46c27.58,6.47,54.69,5.64,81.7-3.88c1.22-6.27,0.62-12.13-0.11-17.96
			c-1.82-14.46-6.19-28.21-11.89-41.57c-0.7-1.64-1.86-3.15-1.55-5.1L532.86,433.38z"/>
		<path class="st2" d="M368.14,483.59c-37.79,5.04-91.57-16.65-109.29-77.88c-14.66-0.69-29.52-1.39-45.93-2.16
			c23.95,24.84,34.39,53.21,30.9,87.16c-28.07,1.92-52.36-6.4-73.29-24.07c-21.03-17.75-32.65-40.95-35.95-68.25
			c-18.09-1.84-35.48-3.61-53.7-5.47c1.81-15.29,3.52-29.77,5.33-45.12c16.84,1.74,33.15,3.43,50.37,5.22
			c-1.53-31.1,7.64-57.97,28.8-80.25c13.67-14.4,31.44-24.12,51.47-28.53c4.25,8.95,6.34,18.56,7.77,28.52
			c1.45,10.14,0.85,20.15-0.74,30.1c-1.6,9.99-5.08,19.44-9.59,28.53c-4.46,8.99-10.58,16.87-17.18,24.89
			c11.09,2.43,54.23,3.84,62.95,2.11c-5.84-30.2-1.21-58.55,16.9-83.89c11.81-16.52,27.07-28.86,47.04-35.98
			c12.34,19.01,16.32,39.6,14.97,61.5c-1.35,21.84-9.96,40.89-23.01,57.81c1.06,1.89,2.43,1.6,3.64,1.61
			c17.59,0.07,35.11-1.24,52.63-2.55c2.74-0.21,5.68-0.35,8.51-2.35c-8.47-28.41-6.47-56.11,8.05-82.27
			c11.52-20.75,28.35-35.92,51.26-45.23c11.91,17.76,16.96,37.36,16.52,58.42c-0.44,20.83-7.37,39.78-19.04,57.43
			c6.83,0.15,52.33-12.71,61.11-17.09c-9.6-28.88-8.62-57.32,5.77-84.61c9.62-18.25,23.59-32.36,42.38-42.43
			c12.46,15.17,18.97,32.34,22.02,51.36c3.1,19.3-1.45,37.25-7.97,56.24c20.25-6.41,38.94-14.09,57.32-21.74
			c1.1-3.89-1.16-6.09-2.33-8.52c-11.74-24.43-13.53-49.68-5.61-75.45c6.73-21.89,19.68-39.54,38.1-53.04
			c11.15,6.03,24.57,28.85,29.57,49.53c4.66,19.28,2.93,38.3-3.1,59.04c19.15-10.51,35.12-21.84,50.05-35.49
			c-17.29-28.4-22.94-58.07-12.52-89.95c7.07-21.62,19.93-38.81,38.85-52.57c22.14,22.09,32.06,48.5,31.33,79.86
			c2.72-1.35,3.71-3.43,5.11-5.02c1.53-1.73,2.88-3.63,4.48-5.68c-1.84-27.97,5.97-53.02,23.81-74.82
			c11.27-13.78,30.94-27.82,48.05-31.49c4.68,7.12,7.35,15.17,9.19,23.47c7.76,35.16,0.27,66.6-23.61,93.77
			c-3.9,4.44-8.09,8.98-13.03,12.08c-8.3,5.21-14.48,12.35-20.72,19.56c-4.18,4.83-8.38,9.63-12.69,14.58
			c3.18,1.49,5.59,0.18,8.05-0.45c18.37-4.68,36.79-5,55.19-0.28c14.74,3.78,27.7,10.97,39.34,20.5
			c-21.74,44.57-91.62,74.7-151.95,31.72c-11.83,10.5-24.71,19.93-37.73,28.8c0.47,3.1,2.71,2.5,4.3,2.77
			c25.85,4.48,46.66,17.44,63.2,37.57c3.12,3.79,6.04,7.73,7.77,12.37c-26.58,28.34-98.89,43.45-147.29-13.81
			c-6.7,1.92-50.46,19.78-53.94,22.19c30.06,11.84,51.75,31.82,63.11,62.13c-31.83,23.84-104.57,25.03-142.37-37.17
			c-15.25,3.67-30.26,9-46.97,13.49c7.39,5.87,14.45,10.39,20.39,16.26c5.92,5.86,10.93,12.39,15.51,19.3
			c4.75,7.17,8.04,15.03,10.55,23.2c2.42,7.85,5.17,15.7,4.16,25.02c-26.05,6.02-50.9,3.36-74.48-9.77
			c-23.33-12.99-39.21-32.33-48.23-57.78c-16.26,0.91-31.95,3.47-49.52,3.46c13.91,16.66,22.54,34,25.55,53.78
			C368.98,466.17,369.03,474.7,368.14,483.59z"/>
		<path class="st2" d="M583.06,202.6c-8.54-17.9-19.21-33.85-34.31-47.66c-34.07,17.78-56.83,45.24-70.39,81.82
			c-10.28-30.04-17.13-43.67-27.89-55.39c-38.58,13.36-66.38,38.98-85.09,77.22c-5.15-25.17-13.67-47.49-29.44-66.92
			c-16.1,5.45-30.39,13.42-43.55,23.61c-13.15,10.18-23.66,22.74-33.67,38.17c-2.51-25.83-14.49-41.9-39.1-47.86
			c2.14-8.41,5.62-15.51,9.24-22.49c12.32-23.79,29.99-43.18,50.17-60.47c27.3-23.39,58.69-39.14,92.59-50.6
			c27.26-9.22,54.92-16.51,83.48-19.94c21.86-2.63,43.81-2.8,65.78-0.93c52.68,4.48,103.02,18.83,152.61,36.21
			c8.47,2.97,16.43,7.36,25.48,11.48c-8.09,16.98-11.01,34.65-11.24,54.68c-7.07-9.81-12.16-18.98-19.16-26.72
			c-7.11-7.86-14.47-15.42-24.14-21.82C610.6,129.09,590.3,161.49,583.06,202.6z"/>
		<path class="st2" d="M533,433.26c-0.32-0.22-0.64-0.43-0.99-0.67c1.01-0.48,1.01,0.06,0.85,0.79L533,433.26z"/>
	</g>
</g>
</svg>
